<svg width="18" height="20" viewBox="0 0 18 20" fill="none" xmlns="http://www.w3.org/2000/svg">
<path d="M16.2973 17.2974C16.2973 17.6493 16.1574 17.9868 15.9087 18.2356C15.6599 18.4843 15.3224 18.6242 14.9705 18.6242H3.02942C2.67753 18.6242 2.34006 18.4843 2.09124 18.2356C1.84243 17.9868 1.70264 17.6493 1.70264 17.2974V2.70276C1.70264 2.35087 1.84243 2.0134 2.09124 1.76458C2.34006 1.51576 2.67753 1.37598 3.02942 1.37598H10.4406C10.7924 1.37598 11.1299 1.51576 11.3787 1.76458L15.9087 6.29452C16.1574 6.54333 16.2973 6.88081 16.2973 7.23269V17.2974Z" stroke="#7FBC53" stroke-width="1.71" stroke-linecap="round" stroke-linejoin="round"/>
<path d="M9.74097 9.1709H13.0579" stroke="#7FBC53" stroke-width="1.71" stroke-linecap="round" stroke-linejoin="round"/>
<path d="M9.74097 14.105H13.0579" stroke="#7FBC53" stroke-width="1.71" stroke-linecap="round" stroke-linejoin="round"/>
<path d="M4.61011 14.0296L5.72181 15.1413L7.57464 12.5474" stroke="#7FBC53" stroke-width="1.71" stroke-linecap="round" stroke-linejoin="round"/>
<path d="M4.61011 9.01279L5.72181 10.1245L7.57464 7.53052" stroke="#7FBC53" stroke-width="1.71" stroke-linecap="round" stroke-linejoin="round"/>
</svg>
