<svg width="16" height="16" viewBox="0 0 16 16" fill="none" xmlns="http://www.w3.org/2000/svg">
<g clip-path="url(#clip0_1510_912)">
<path d="M6.12665 14.3733C6.16082 14.3757 6.19487 14.3674 6.22419 14.3497C6.25351 14.332 6.27667 14.3057 6.29051 14.2744C6.30435 14.2431 6.30821 14.2083 6.30155 14.1747C6.2949 14.1411 6.27805 14.1104 6.25332 14.0867C5.98881 13.8255 5.77937 13.5139 5.63738 13.1704C5.49539 12.8269 5.42373 12.4584 5.42665 12.0867C5.42534 12.0469 5.40983 12.0089 5.38293 11.9795C5.35603 11.9502 5.31951 11.9314 5.27998 11.9267C3.80994 11.7982 2.39894 11.288 1.18665 10.4467C1.16189 10.4281 1.13244 10.4168 1.10162 10.414C1.07079 10.4112 1.0398 10.4171 1.01211 10.4309C0.98443 10.4448 0.961147 10.4661 0.944874 10.4924C0.928602 10.5187 0.919983 10.5491 0.919983 10.58V11.7267C0.919983 13.06 3.16665 14.1533 6.12665 14.3733Z" fill="#005B27"/>
<path d="M0.919983 8.75334C0.919983 9.95334 2.80665 10.9667 5.39332 11.3C5.43182 11.305 5.47088 11.2965 5.50375 11.2758C5.53661 11.2551 5.56122 11.2236 5.57332 11.1867C5.76002 10.6262 6.11765 10.1382 6.59596 9.79146C7.07427 9.44469 7.6492 9.2565 8.23998 9.25334C8.75351 9.31043 9.25258 9.45948 9.71332 9.69334C9.7516 9.71008 9.79477 9.71183 9.83428 9.69825C9.87379 9.68467 9.90675 9.65674 9.92665 9.62L10.2733 9.03334C10.2879 9.00558 10.2955 8.9747 10.2955 8.94334C10.2955 8.91198 10.2879 8.88109 10.2733 8.85334C10.2546 8.8274 10.2292 8.80693 10.1999 8.79404C10.1706 8.78115 10.1384 8.77631 10.1066 8.78C9.16271 8.94051 8.20981 9.04292 7.25332 9.08667C4.91332 9.08667 2.47998 8.52667 1.18665 7.47334C1.16189 7.45477 1.13244 7.44346 1.10162 7.44068C1.07079 7.4379 1.0398 7.44376 1.01211 7.4576C0.98443 7.47144 0.961147 7.49272 0.944874 7.51905C0.928602 7.54538 0.919983 7.57572 0.919983 7.60667V8.75334Z" fill="#005B27"/>
<path d="M7.25332 6.08667C4.91332 6.08667 2.47998 5.52667 1.18665 4.47334C1.16189 4.45477 1.13244 4.44346 1.10162 4.44068C1.07079 4.4379 1.0398 4.44376 1.01211 4.4576C0.98443 4.47144 0.961147 4.49272 0.944874 4.51905C0.928602 4.54538 0.919983 4.57572 0.919983 4.60667V5.75334C0.919983 7.22667 3.75332 8.42 7.25332 8.42C8.36583 8.42712 9.47472 8.29271 10.5533 8.02C10.5779 8.01369 10.6008 8.00206 10.6204 7.98593C10.6399 7.9698 10.6557 7.94957 10.6666 7.92667C10.8893 7.42848 11.2514 7.00539 11.7092 6.70846C12.167 6.41154 12.701 6.25347 13.2467 6.25334H13.3333C13.3701 6.25843 13.4075 6.25058 13.4391 6.23112C13.4708 6.21165 13.4946 6.1818 13.5067 6.14667C13.6119 5.64038 13.6366 5.12067 13.58 4.60667C13.5801 4.57414 13.5707 4.54229 13.5529 4.51505C13.5352 4.4878 13.5098 4.46635 13.48 4.45334C13.4545 4.43585 13.4243 4.42649 13.3933 4.42649C13.3624 4.42649 13.3322 4.43585 13.3067 4.45334C12 5.52667 9.58665 6.08667 7.25332 6.08667Z" fill="#005B27"/>
<path d="M0.919983 2.75334C0.919983 3.46058 1.58724 4.13886 2.77497 4.63895C3.9627 5.13905 5.57361 5.42 7.25332 5.42C8.93302 5.42 10.5439 5.13905 11.7317 4.63895C12.9194 4.13886 13.5866 3.46058 13.5866 2.75334C13.5866 2.04609 12.9194 1.36782 11.7317 0.867719C10.5439 0.367622 8.93302 0.0866699 7.25332 0.0866699C5.57361 0.0866699 3.9627 0.367622 2.77497 0.867719C1.58724 1.36782 0.919983 2.04609 0.919983 2.75334Z" fill="#005B27"/>
<path d="M13.2467 7.25334C12.7604 7.25334 12.2941 7.44649 11.9503 7.79031C11.6065 8.13412 11.4133 8.60044 11.4133 9.08667C11.4153 9.20585 11.4309 9.32441 11.46 9.44C11.4665 9.47458 11.4623 9.51032 11.448 9.54247C11.4337 9.57462 11.41 9.60167 11.38 9.62L9.60665 10.6667C9.57883 10.6878 9.54489 10.6992 9.50998 10.6992C9.47508 10.6992 9.44113 10.6878 9.41332 10.6667C9.18653 10.4793 8.91798 10.3492 8.63034 10.2875C8.34271 10.2258 8.04445 10.2341 7.76074 10.3119C7.47703 10.3897 7.2162 10.5347 7.0003 10.7345C6.78439 10.9343 6.61975 11.1832 6.52026 11.46C6.42078 11.7369 6.38938 12.0336 6.42871 12.3251C6.46805 12.6167 6.57697 12.8945 6.74627 13.1351C6.91557 13.3757 7.14028 13.572 7.40142 13.7074C7.66256 13.8429 7.95247 13.9135 8.24665 13.9133C8.5078 13.9137 8.76591 13.8573 9.00306 13.7479C9.24021 13.6385 9.45072 13.4789 9.61998 13.28C9.64267 13.2542 9.67307 13.2363 9.7067 13.2291C9.74032 13.2219 9.77537 13.2257 9.80665 13.24L11.32 13.8467C11.3521 13.8591 11.3796 13.8811 11.3987 13.9097C11.4178 13.9384 11.4276 13.9722 11.4266 14.0067C11.4134 14.3708 11.5092 14.7305 11.702 15.0397C11.8948 15.3489 12.1756 15.5934 12.5084 15.7417C12.8412 15.8901 13.2107 15.9355 13.5695 15.8722C13.9283 15.8089 14.26 15.6397 14.5219 15.3864C14.7838 15.1332 14.964 14.8073 15.0393 14.4508C15.1146 14.0944 15.0816 13.7235 14.9445 13.3859C14.8074 13.0484 14.5725 12.7595 14.2699 12.5565C13.9674 12.3535 13.611 12.2456 13.2467 12.2467C12.9871 12.246 12.7304 12.3017 12.4945 12.4099C12.2585 12.5181 12.0489 12.6762 11.88 12.8733C11.8573 12.8992 11.8269 12.917 11.7933 12.9242C11.7596 12.9314 11.7246 12.9276 11.6933 12.9133L10.18 12.3133C10.1468 12.2992 10.1191 12.2746 10.1011 12.2433C10.083 12.2121 10.0756 12.1758 10.08 12.14C10.089 11.9988 10.0755 11.857 10.04 11.72C10.0313 11.6854 10.0345 11.6489 10.049 11.6162C10.0635 11.5836 10.0885 11.5568 10.12 11.54L11.8933 10.4733C11.9211 10.4522 11.9551 10.4408 11.99 10.4408C12.0249 10.4408 12.0588 10.4522 12.0866 10.4733C12.313 10.6587 12.5807 10.787 12.867 10.8474C13.1533 10.9077 13.4499 10.8984 13.7319 10.8203C14.0139 10.7421 14.2729 10.5973 14.4873 10.3981C14.7017 10.199 14.865 9.95121 14.9637 9.67572C15.0623 9.40023 15.0933 9.10508 15.0541 8.81512C15.0148 8.52515 14.9065 8.24884 14.7382 8.00947C14.57 7.77009 14.3466 7.57464 14.0871 7.43958C13.8275 7.30451 13.5393 7.23378 13.2467 7.23334V7.25334Z" fill="#005B27"/>
</g>
<defs>
<clipPath id="clip0_1510_912">
<rect width="16" height="16" fill="white"/>
</clipPath>
</defs>
</svg>
