<svg width="16" height="16" viewBox="0 0 16 16" fill="none" xmlns="http://www.w3.org/2000/svg">
<g clip-path="url(#clip0_1510_918)">
<path d="M16 8.72667C15.9993 8.63665 15.9788 8.54788 15.94 8.46667L14.1133 4.34667C14.1038 4.32536 14.0988 4.30228 14.0987 4.27892C14.0986 4.25556 14.1034 4.23244 14.1129 4.21107C14.1223 4.1897 14.1361 4.17054 14.1534 4.15485C14.1707 4.13917 14.1911 4.12729 14.2133 4.12C14.3644 4.07037 14.4927 3.96839 14.5752 3.83245C14.6577 3.69652 14.6888 3.53559 14.6631 3.37869C14.6373 3.22179 14.5564 3.07926 14.4348 2.97682C14.3132 2.87437 14.159 2.81875 14 2.82H8.83333C8.79135 2.82013 8.75086 2.80442 8.71996 2.77599C8.68906 2.74756 8.67003 2.70852 8.66667 2.66667V1.16667C8.66667 0.989856 8.59643 0.820286 8.47141 0.695262C8.34638 0.570238 8.17681 0.5 8 0.5C7.82319 0.5 7.65362 0.570238 7.5286 0.695262C7.40357 0.820286 7.33333 0.989856 7.33333 1.16667V2.66667C7.33333 2.71087 7.31577 2.75326 7.28452 2.78452C7.25326 2.81577 7.21087 2.83333 7.16667 2.83333H2C1.84101 2.83209 1.68681 2.8877 1.56522 2.99015C1.44362 3.0926 1.36265 3.23512 1.3369 3.39202C1.31116 3.54892 1.34233 3.70985 1.4248 3.84579C1.50728 3.98172 1.63562 4.0837 1.78667 4.13333C1.80993 4.13904 1.83133 4.15061 1.84884 4.16696C1.86635 4.1833 1.87937 4.20386 1.88667 4.22667C1.8967 4.24746 1.90192 4.27025 1.90192 4.29333C1.90192 4.31642 1.8967 4.33921 1.88667 4.36L0.06 8.46667C0.0211616 8.54788 0.000676838 8.63665 0 8.72667C0 9.52232 0.316071 10.2854 0.87868 10.848C1.44129 11.4106 2.20435 11.7267 3 11.7267C3.79565 11.7267 4.55871 11.4106 5.12132 10.848C5.68393 10.2854 6 9.52232 6 8.72667C5.99528 8.6343 5.97263 8.54373 5.93333 8.46L4.12667 4.38667C4.11381 4.36196 4.1071 4.33452 4.1071 4.30667C4.1071 4.27882 4.11381 4.25137 4.12667 4.22667C4.14252 4.20422 4.16348 4.18587 4.18782 4.17312C4.21216 4.16037 4.23919 4.15358 4.26667 4.15333H7.15333C7.19754 4.15333 7.23993 4.17089 7.27118 4.20215C7.30244 4.2334 7.32 4.2758 7.32 4.32V14C7.32 14.0442 7.30244 14.0866 7.27118 14.1179C7.23993 14.1491 7.19754 14.1667 7.15333 14.1667H6.05333C5.87652 14.1667 5.70695 14.2369 5.58193 14.3619C5.4569 14.487 5.38667 14.6565 5.38667 14.8333C5.38667 15.0101 5.4569 15.1797 5.58193 15.3047C5.70695 15.4298 5.87652 15.5 6.05333 15.5H9.92667C10.1035 15.5 10.273 15.4298 10.3981 15.3047C10.5231 15.1797 10.5933 15.0101 10.5933 14.8333C10.5933 14.6565 10.5231 14.487 10.3981 14.3619C10.273 14.2369 10.1035 14.1667 9.92667 14.1667H8.83333C8.78913 14.1667 8.74674 14.1491 8.71548 14.1179C8.68423 14.0866 8.66667 14.0442 8.66667 14V4.32C8.66667 4.2758 8.68423 4.2334 8.71548 4.20215C8.74674 4.17089 8.78913 4.15333 8.83333 4.15333H11.72C11.7475 4.15358 11.7745 4.16037 11.7988 4.17312C11.8232 4.18587 11.8441 4.20422 11.86 4.22667C11.8729 4.25137 11.8796 4.27882 11.8796 4.30667C11.8796 4.33452 11.8729 4.36196 11.86 4.38667L10.0667 8.46667C10.0274 8.55039 10.0047 8.64096 10 8.73333C10 9.52898 10.3161 10.292 10.8787 10.8547C11.4413 11.4173 12.2044 11.7333 13 11.7333C13.7956 11.7333 14.5587 11.4173 15.1213 10.8547C15.6839 10.292 16 9.52898 16 8.73333V8.72667ZM1.87333 8.23333C1.84586 8.23308 1.81883 8.2263 1.79449 8.21355C1.77015 8.2008 1.74919 8.18245 1.73333 8.16C1.72191 8.13488 1.71601 8.1076 1.71601 8.08C1.71601 8.0524 1.72191 8.02512 1.73333 8L2.84667 5.47333C2.85947 5.44327 2.88084 5.41763 2.9081 5.39961C2.93536 5.38159 2.96732 5.37199 3 5.37199C3.03268 5.37199 3.06464 5.38159 3.0919 5.39961C3.11916 5.41763 3.14053 5.44327 3.15333 5.47333L4.27333 8C4.28475 8.02512 4.29066 8.0524 4.29066 8.08C4.29066 8.1076 4.28475 8.13488 4.27333 8.16C4.25748 8.18245 4.23652 8.2008 4.21218 8.21355C4.18784 8.2263 4.16081 8.23308 4.13333 8.23333H1.87333ZM11.8733 8.23333C11.8459 8.23308 11.8188 8.2263 11.7945 8.21355C11.7701 8.2008 11.7492 8.18245 11.7333 8.16C11.7219 8.13488 11.716 8.1076 11.716 8.08C11.716 8.0524 11.7219 8.02512 11.7333 8L12.8533 5.47333C12.8661 5.44327 12.8875 5.41763 12.9148 5.39961C12.942 5.38159 12.974 5.37199 13.0067 5.37199C13.0393 5.37199 13.0713 5.38159 13.0986 5.39961C13.1258 5.41763 13.1472 5.44327 13.16 5.47333L14.28 8C14.2914 8.02512 14.2973 8.0524 14.2973 8.08C14.2973 8.1076 14.2914 8.13488 14.28 8.16C14.2641 8.18245 14.2432 8.2008 14.2188 8.21355C14.1945 8.2263 14.1675 8.23308 14.14 8.23333H11.8733Z" fill="#005B27"/>
</g>
<defs>
<clipPath id="clip0_1510_918">
<rect width="16" height="16" fill="white"/>
</clipPath>
</defs>
</svg>
