<svg width="16" height="16" viewBox="0 0 16 16" fill="none" xmlns="http://www.w3.org/2000/svg">
<g clip-path="url(#clip0_1510_900)">
<path d="M10.96 2.70996C10.96 3.373 11.2234 4.00889 11.6922 4.47773C12.1611 4.94657 12.797 5.20996 13.46 5.20996C14.123 5.20996 14.7589 4.94657 15.2278 4.47773C15.6966 4.00889 15.96 3.373 15.96 2.70996C15.96 2.04692 15.6966 1.41103 15.2278 0.942194C14.7589 0.473353 14.123 0.209961 13.46 0.209961C12.797 0.209961 12.1611 0.473353 11.6922 0.942194C11.2234 1.41103 10.96 2.04692 10.96 2.70996Z" fill="#005B27"/>
<path d="M18 18.29C18 18.953 18.2634 19.5889 18.7322 20.0577C19.2011 20.5266 19.837 20.79 20.5 20.79C21.163 20.79 21.7989 20.5266 22.2678 20.0577C22.7366 19.5889 23 18.953 23 18.29C23 17.6269 22.7366 16.991 22.2678 16.5222C21.7989 16.0534 21.163 15.79 20.5 15.79C19.837 15.79 19.2011 16.0534 18.7322 16.5222C18.2634 16.991 18 17.6269 18 18.29Z" fill="#005B27"/>
<path d="M23 21.79H1C0.734784 21.79 0.48043 21.8953 0.292893 22.0829C0.105357 22.2704 0 22.5247 0 22.79C0 23.0552 0.105357 23.3095 0.292893 23.4971C0.48043 23.6846 0.734784 23.79 1 23.79H23C23.2652 23.79 23.5196 23.6846 23.7071 23.4971C23.8946 23.3095 24 23.0552 24 22.79C24 22.5247 23.8946 22.2704 23.7071 22.0829C23.5196 21.8953 23.2652 21.79 23 21.79Z" fill="#005B27"/>
<path d="M15 20.79C15.3978 20.79 15.7794 20.6319 16.0607 20.3506C16.342 20.0693 16.5 19.6878 16.5 19.29C16.5 18.8921 16.342 18.5106 16.0607 18.2293C15.7794 17.948 15.3978 17.79 15 17.79H11.58C11.5337 17.7903 11.4884 17.7773 11.4493 17.7524C11.4103 17.7276 11.3793 17.692 11.36 17.65L10.17 15.28C9.80126 14.5336 9.23143 13.9051 8.52471 13.4651C7.81799 13.0252 7.00246 12.7914 6.17 12.79H2.5C2.10218 12.79 1.72064 12.948 1.43934 13.2293C1.15804 13.5106 1 13.8921 1 14.29C1 14.6878 1.15804 15.0693 1.43934 15.3506C1.72064 15.6319 2.10218 15.79 2.5 15.79H6.15C6.42838 15.7903 6.70115 15.8682 6.93781 16.0148C7.17446 16.1613 7.36566 16.3709 7.49 16.62L9.16 20C9.28341 20.2498 9.4744 20.4599 9.71126 20.6067C9.94812 20.7534 10.2214 20.8307 10.5 20.83L15 20.79Z" fill="#005B27"/>
<path d="M1.5 20.79H7.19C7.27611 20.7895 7.3607 20.7673 7.43589 20.7253C7.51108 20.6833 7.57441 20.623 7.62 20.55C7.66213 20.477 7.68431 20.3942 7.68431 20.31C7.68431 20.2257 7.66213 20.1429 7.62 20.07L6.62 18.07C6.57785 17.9865 6.51359 17.9163 6.43423 17.8669C6.35487 17.8175 6.26346 17.7909 6.17 17.79H1.5C1.10218 17.79 0.720644 17.948 0.43934 18.2293C0.158035 18.5106 0 18.8921 0 19.29C0 19.6878 0.158035 20.0693 0.43934 20.3506C0.720644 20.6319 1.10218 20.79 1.5 20.79Z" fill="#005B27"/>
<path d="M13.5 6.68996C13.38 6.68996 10.92 6.48996 8.78 9.38996L7.2 11.53C7.18072 11.567 7.17065 11.6082 7.17065 11.65C7.17065 11.6917 7.18072 11.7329 7.2 11.77C7.21381 11.8088 7.2378 11.8432 7.26947 11.8696C7.30113 11.896 7.33931 11.9134 7.38 11.92C8.13941 12.0905 8.85276 12.4238 9.47084 12.8969C10.0889 13.3699 10.597 13.9715 10.96 14.66C10.9816 14.6994 11.0134 14.7323 11.0521 14.7552C11.0909 14.7781 11.135 14.7901 11.18 14.79H11.33C11.3691 14.7917 11.408 14.7834 11.443 14.7659C11.478 14.7484 11.5079 14.7223 11.53 14.69C11.5446 14.6569 11.5521 14.6211 11.5521 14.585C11.5521 14.5488 11.5446 14.513 11.53 14.48C11.3805 13.9375 11.428 13.3595 11.6642 12.8488C11.9004 12.338 12.3099 11.9275 12.82 11.69C12.91 11.69 12.98 11.6 13.07 11.57L15.07 10.85C15.131 10.8278 15.1959 10.818 15.2607 10.8212C15.3256 10.8243 15.3891 10.8403 15.4477 10.8682C15.5064 10.8961 15.5588 10.9354 15.6022 10.9838C15.6455 11.0321 15.6787 11.0886 15.7 11.15C15.7328 11.2429 15.738 11.3434 15.715 11.4392C15.6919 11.535 15.6415 11.6221 15.57 11.69C15.5245 11.7345 15.4699 11.7686 15.41 11.79L13.41 12.51C13.2087 12.5797 13.0254 12.6933 12.8733 12.8425C12.7211 12.9917 12.604 13.1728 12.5304 13.3727C12.4567 13.5727 12.4283 13.7864 12.4473 13.9987C12.4663 14.2109 12.5321 14.4163 12.64 14.6C13.34 15.8 14.44 15.16 16.32 14.48C20.32 13.12 18 6.68996 13.5 6.68996Z" fill="#005B27"/>
</g>
<defs>
<clipPath id="clip0_1510_900">
<rect width="16" height="16" fill="white"/>
</clipPath>
</defs>
</svg>
