<svg width="16" height="13" viewBox="0 0 16 13" fill="none" xmlns="http://www.w3.org/2000/svg">
<path d="M22.44 11.85C22.3455 9.63912 21.5549 7.51462 20.181 5.77982C18.8072 4.04502 16.9204 2.78862 14.79 2.19C14.6596 1.57239 14.3215 1.01813 13.832 0.61961C13.3425 0.221092 12.7312 0.00240231 12.1 0H11.9C11.2702 0.0019106 10.66 0.219174 10.1706 0.61572C9.68133 1.01227 9.34235 1.56424 9.21 2.18C7.07727 2.77779 5.18849 4.03531 3.81427 5.77239C2.44006 7.50946 1.65095 9.63694 1.56 11.85C1.24976 11.9501 0.979607 12.1467 0.788932 12.4112C0.598258 12.6756 0.497029 12.994 0.500003 13.32V14.32C0.498674 14.5239 0.537859 14.7261 0.615283 14.9147C0.692708 15.1034 0.806829 15.2748 0.951026 15.419C1.09522 15.5632 1.26662 15.6773 1.45528 15.7547C1.64393 15.8321 1.84608 15.8713 2.05 15.87H4.21L4.49 16.87C4.58386 17.1973 4.78226 17.485 5.0549 17.689C5.32755 17.8931 5.65947 18.0023 6 18H18C18.3371 17.9979 18.6645 17.8867 18.9331 17.683C19.2017 17.4793 19.3971 17.1941 19.49 16.87L19.77 15.87H22C22.2039 15.8713 22.4061 15.8321 22.5947 15.7547C22.7834 15.6773 22.9548 15.5632 23.099 15.419C23.2432 15.2748 23.3573 15.1034 23.4347 14.9147C23.5121 14.7261 23.5513 14.5239 23.55 14.32V13.32C23.5497 12.9877 23.4413 12.6645 23.241 12.3992C23.0407 12.134 22.7596 11.9412 22.44 11.85ZM11.9 1.49H12.1C12.4307 1.49261 12.7471 1.62515 12.981 1.85901C13.2149 2.09286 13.3474 2.40929 13.35 2.74V9.74C13.35 10.0724 13.2186 10.3914 12.9845 10.6274C12.7504 10.8634 12.4324 10.9974 12.1 11H11.9C11.5693 10.9974 11.2529 10.8648 11.019 10.631C10.7852 10.3971 10.6526 10.0807 10.65 9.75V2.75C10.65 2.41755 10.7814 2.09857 11.0155 1.86256C11.2496 1.62655 11.5676 1.49264 11.9 1.49ZM15.71 6.68C15.71 6.41478 15.8154 6.16043 16.0029 5.97289C16.1904 5.78536 16.4448 5.68 16.71 5.68C16.9752 5.68 17.2296 5.78536 17.4171 5.97289C17.6046 6.16043 17.71 6.41478 17.71 6.68V10.17C17.71 10.4352 17.6046 10.6896 17.4171 10.8771C17.2296 11.0646 16.9752 11.17 16.71 11.17C16.4448 11.17 16.1904 11.0646 16.0029 10.8771C15.8154 10.6896 15.71 10.4352 15.71 10.17V6.68ZM8.29 6.68V10.17C8.29 10.4352 8.18465 10.6896 7.99711 10.8771C7.80957 11.0646 7.55522 11.17 7.29 11.17C7.02479 11.17 6.77043 11.0646 6.5829 10.8771C6.39536 10.6896 6.29 10.4352 6.29 10.17V6.68C6.29 6.41478 6.39536 6.16043 6.5829 5.97289C6.77043 5.78536 7.02479 5.68 7.29 5.68C7.55522 5.68 7.80957 5.78536 7.99711 5.97289C8.18465 6.16043 8.29 6.41478 8.29 6.68Z" fill="#005B27"/>
</svg>
