<svg width="12" height="12" viewBox="0 0 12 12" fill="none" xmlns="http://www.w3.org/2000/svg">
<g clip-path="url(#clip0_1720_149)">
<path d="M11.86 1.275C10.0188 0.440436 8.02151 0.00587463 6 0C3.97849 0.00587463 1.98121 0.440436 0.14 1.275C0.0982868 1.29607 0.0631671 1.32821 0.0384773 1.36789C0.0137874 1.40757 0.000477029 1.45327 0 1.5C0 6.5 2 10 5.89 12C5.92435 12.0164 5.96193 12.0249 6 12.0249C6.03807 12.0249 6.07565 12.0164 6.11 12C10 10 12 6.5 12 1.5C11.9995 1.45327 11.9862 1.40757 11.9615 1.36789C11.9368 1.32821 11.9017 1.29607 11.86 1.275ZM4.9 5.14L5.765 6.065L8.35 3.405C8.52552 3.26596 8.73795 3.18143 8.96101 3.16188C9.18407 3.14233 9.40797 3.18861 9.605 3.295L5.835 8.445L2.96 5.175C2.96 5.175 4.195 4.38 4.9 5.14Z" fill="#005B27"/>
</g>
<defs>
<clipPath id="clip0_1720_149">
<rect width="12" height="12" fill="white"/>
</clipPath>
</defs>
</svg>
