<svg width="145" height="48" viewBox="0 0 145 48" fill="none" xmlns="http://www.w3.org/2000/svg">
<path d="M44.4399 36.6395C40.2043 43.4588 32.6422 48 24.0185 48C10.7531 48.0006 0 37.255 0 24.0003C0 21.7353 0.313964 19.5437 0.901157 17.4666C3.3502 26.5496 11 33.501 20.4634 34.9356C24.303 37.5368 28.9367 39.0566 33.925 39.0566C37.6963 39.0566 41.2646 38.1881 44.4399 36.6401V36.6395Z" fill="#04652E"/>
<path d="M48.0371 24.0003C48.0371 28.6386 46.7204 32.9693 44.44 36.6401C41.264 38.1881 37.6963 39.0566 33.925 39.0566C28.9367 39.0566 24.3031 37.5368 20.4634 34.9356C21.6479 35.1147 22.8605 35.208 24.0944 35.208C35.0925 35.208 44.3648 27.8214 47.2118 17.7415C47.7501 19.7371 48.0371 21.8349 48.0371 24.0009V24.0003Z" fill="#099939"/>
<path d="M20.4628 34.935C11 33.501 3.3496 26.5496 0.901184 17.4659C2.77181 10.8433 7.41671 5.38218 13.503 2.4165C11.2231 6.08728 9.90586 10.4181 9.90586 15.0557C9.90586 23.3259 14.092 30.6192 20.4628 34.935Z" fill="#099939"/>
<path d="M47.2116 17.7408C44.3647 27.8207 35.0924 35.2074 24.0943 35.2074C22.8597 35.2074 21.6471 35.1141 20.4633 34.935C14.0926 30.6192 9.90637 23.3259 9.90637 15.0557C9.90637 10.4174 11.223 6.08727 13.5035 2.4165C16.6788 0.868537 20.2471 0 24.0184 0C35.1168 0 44.4562 7.52127 47.2116 17.7408Z" fill="#7FBC53"/>
<path d="M57.1606 33.114V37.2697H56.4927V33.114H57.1606Z" fill="#04652E"/>
<path d="M62.6024 33.114V37.2697H61.9837V34.8642L62.0334 33.7179H62.0273L60.7718 37.2691H60.2156L58.9601 33.7179H58.954L59.0038 34.8642V37.2697H58.3851V33.114H59.3786L60.2096 35.5196L60.4971 36.5081H60.5098L60.8034 35.5196L61.6283 33.114H62.603H62.6024Z" fill="#04652E"/>
<path d="M65.4136 33.114C65.7092 33.114 65.9644 33.1668 66.1787 33.2718C66.393 33.3767 66.561 33.5257 66.6819 33.7186C66.8028 33.9116 66.8632 34.1445 66.8632 34.4173C66.8632 34.6902 66.8028 34.9177 66.6819 35.1133C66.561 35.3083 66.3937 35.4586 66.1787 35.5636C65.9644 35.6685 65.7092 35.7213 65.4136 35.7213H64.4953V37.2704H63.8269V33.1147H65.4136V33.114ZM65.3075 35.1411C65.603 35.1411 65.8207 35.0795 65.9604 34.9556C66.1001 34.8317 66.17 34.6523 66.17 34.4173C66.17 34.1824 66.1001 33.9969 65.9604 33.873C65.8207 33.7491 65.603 33.6875 65.3075 33.6875H64.4953V35.1418H65.3075V35.1411Z" fill="#04652E"/>
<path d="M71.0301 33.114V35.6766C71.0301 36.2264 70.8864 36.6401 70.5989 36.917C70.3113 37.1939 69.8928 37.3327 69.3433 37.3327C68.7938 37.3327 68.3868 37.1939 68.0972 36.917C67.8077 36.6401 67.6633 36.2264 67.6633 35.6766V33.114H68.3317V35.5947C68.3317 35.9854 68.415 36.2745 68.5816 36.4634C68.7482 36.6523 69.0021 36.7471 69.344 36.7471C69.6859 36.7471 69.9459 36.6523 70.1125 36.4634C70.2791 36.2745 70.3624 35.9847 70.3624 35.5947V33.114H71.0308H71.0301Z" fill="#04652E"/>
<path d="M72.8419 36.6902H75.1158V37.2697H72.1735V33.114H72.8419V36.6902Z" fill="#04652E"/>
<path d="M77.3212 33.051C77.692 33.051 78.0124 33.1214 78.2831 33.2623C78.5539 33.4031 78.7829 33.6096 78.9703 33.8824L78.5203 34.3171C78.3617 34.074 78.1837 33.8987 77.9862 33.791C77.7881 33.6841 77.5543 33.6306 77.2836 33.6306C77.0834 33.6306 76.9188 33.6577 76.7898 33.7125C76.6608 33.7673 76.5661 33.8398 76.5057 33.9298C76.4452 34.0199 76.415 34.1221 76.415 34.2352C76.415 34.3652 76.46 34.4789 76.5493 34.5751C76.6387 34.6719 76.8066 34.747 77.0525 34.8019L77.8895 34.9908C78.2892 35.0788 78.5727 35.2135 78.7393 35.3936C78.9059 35.5744 78.9892 35.8026 78.9892 36.0801C78.9892 36.3361 78.9206 36.5588 78.7829 36.7477C78.6452 36.9366 78.4551 37.0815 78.2113 37.1824C77.9674 37.2833 77.6812 37.3334 77.3521 37.3334C77.0605 37.3334 76.7979 37.2954 76.5648 37.2203C76.3317 37.1445 76.1275 37.0422 75.9528 36.9116C75.7782 36.7816 75.6344 36.6326 75.5215 36.4647L75.9837 35.9989C76.071 36.1458 76.1812 36.2772 76.3149 36.3923C76.4479 36.508 76.6031 36.5967 76.7804 36.6597C76.9571 36.7227 77.1539 36.7545 77.3709 36.7545C77.5623 36.7545 77.7283 36.7315 77.8673 36.6854C78.007 36.6394 78.1132 36.571 78.1857 36.481C78.2583 36.3909 78.2952 36.2826 78.2952 36.1566C78.2952 36.0307 78.2549 35.9278 78.1736 35.8357C78.0924 35.7436 77.9412 35.6719 77.7209 35.6218L76.8147 35.4139C76.5648 35.3591 76.3585 35.2819 76.196 35.181C76.0334 35.0801 75.9125 34.9576 75.8339 34.8127C75.7546 34.6678 75.715 34.5053 75.715 34.3246C75.715 34.0896 75.7788 33.8763 75.9058 33.6854C76.0328 33.4945 76.2168 33.3415 76.4586 33.2257C76.6998 33.1106 76.9873 33.0524 77.3205 33.0524L77.3212 33.051Z" fill="#04652E"/>
<path d="M80.5941 33.114V37.2697H79.9262V33.114H80.5941Z" fill="#04652E"/>
<path d="M83.5309 33.051C83.9306 33.051 84.2766 33.137 84.5681 33.309C84.8597 33.481 85.0847 33.7267 85.2426 34.0456C85.4011 34.3645 85.4797 34.747 85.4797 35.1919C85.4797 35.6367 85.4004 36.0192 85.2426 36.3381C85.084 36.657 84.859 36.9028 84.5681 37.0747C84.2766 37.2467 83.9306 37.3327 83.5309 37.3327C83.1312 37.3327 82.7913 37.2467 82.5004 37.0747C82.2089 36.9028 81.9839 36.657 81.826 36.3381C81.6675 36.0192 81.5889 35.6374 81.5889 35.1919C81.5889 34.7464 81.6681 34.3652 81.826 34.0456C81.9845 33.7267 82.2089 33.481 82.5004 33.309C82.792 33.137 83.1353 33.051 83.5309 33.051ZM83.5309 33.6367C83.273 33.6367 83.0506 33.6976 82.8659 33.8195C82.6805 33.9413 82.5381 34.1174 82.438 34.3482C82.3379 34.5791 82.2882 34.8608 82.2882 35.1919C82.2882 35.5229 82.3379 35.7992 82.438 36.0327C82.5381 36.2657 82.6805 36.443 82.8659 36.5649C83.0513 36.6868 83.273 36.7477 83.5309 36.7477C83.7889 36.7477 84.0173 36.6868 84.2027 36.5649C84.3881 36.443 84.5305 36.2657 84.6306 36.0327C84.7307 35.7998 84.7804 35.5195 84.7804 35.1919C84.7804 34.8642 84.7307 34.5791 84.6306 34.3482C84.5305 34.1174 84.3881 33.9413 84.2027 33.8195C84.0173 33.6976 83.7936 33.6367 83.5309 33.6367Z" fill="#04652E"/>
<path d="M89.8535 33.114V37.2697H89.0601L87.4674 34.6502L87.0677 33.9136H87.0617L87.0865 34.5873V37.2697H86.4745V33.114H87.2618L88.8485 35.7267L89.2543 36.4762H89.2603L89.2355 35.7965V33.114H89.8542H89.8535Z" fill="#04652E"/>
<path d="M94.4953 37.2697H93.7892L93.3956 36.1804H91.6651L91.2715 37.2697H90.5843L92.1401 33.114H92.9395L94.4953 37.2697ZM91.8526 35.6326H93.2082L92.5337 33.6936L91.8526 35.6326Z" fill="#04652E"/>
<path d="M98.6931 37.2698H97.7063L96.2634 34.827L95.9073 34.1283H95.9013L95.9261 34.8649V37.2705H95.1516V33.1147H96.1324L97.5753 35.5514L97.9313 36.2569H97.9441L97.9192 35.5203V33.1147H98.6938V37.2705L98.6931 37.2698Z" fill="#04652E"/>
<path d="M103.391 35.1919C103.391 36.5202 102.654 37.2697 101.361 37.2697H99.7673V33.114H101.361C102.654 33.114 103.391 33.8635 103.391 35.1919ZM102.498 35.1919C102.498 34.2975 102.104 33.8066 101.317 33.8066H100.63V36.5771H101.317C102.104 36.5771 102.498 36.0863 102.498 35.1919Z" fill="#04652E"/>
<path d="M108.02 35.1919C108.02 36.527 107.265 37.3327 106.04 37.3327C104.816 37.3327 104.053 36.527 104.053 35.1919C104.053 33.8567 104.816 33.051 106.04 33.051C107.265 33.051 108.02 33.8567 108.02 35.1919ZM104.947 35.1919C104.947 36.1174 105.346 36.6211 106.04 36.6211C106.734 36.6211 107.127 36.1174 107.127 35.1919C107.127 34.2663 106.727 33.7626 106.04 33.7626C105.353 33.7626 104.947 34.2663 104.947 35.1919Z" fill="#04652E"/>
<path d="M112.706 33.051C113.106 33.051 113.452 33.137 113.743 33.309C114.035 33.481 114.26 33.7267 114.418 34.0456C114.576 34.3645 114.655 34.747 114.655 35.1919C114.655 35.6367 114.575 36.0192 114.418 36.3381C114.259 36.657 114.034 36.9028 113.743 37.0747C113.452 37.2467 113.106 37.3327 112.706 37.3327C112.306 37.3327 111.966 37.2467 111.675 37.0747C111.384 36.9028 111.159 36.657 111.001 36.3381C110.843 36.0192 110.764 35.6374 110.764 35.1919C110.764 34.7464 110.843 34.3652 111.001 34.0456C111.16 33.7267 111.384 33.481 111.675 33.309C111.967 33.137 112.31 33.051 112.706 33.051ZM112.706 33.6367C112.448 33.6367 112.226 33.6976 112.041 33.8195C111.856 33.9413 111.713 34.1174 111.613 34.3482C111.513 34.5791 111.463 34.8608 111.463 35.1919C111.463 35.5229 111.513 35.7992 111.613 36.0327C111.713 36.2657 111.856 36.443 112.041 36.5649C112.226 36.6868 112.448 36.7477 112.706 36.7477C112.964 36.7477 113.192 36.6868 113.378 36.5649C113.563 36.443 113.706 36.2657 113.806 36.0327C113.906 35.7998 113.955 35.5195 113.955 35.1919C113.955 34.8642 113.906 34.5791 113.806 34.3482C113.706 34.1174 113.563 33.9413 113.378 33.8195C113.192 33.6976 112.969 33.6367 112.706 33.6367Z" fill="#04652E"/>
<path d="M120.884 37.2697H120.178L119.784 36.1804H118.054L117.66 37.2697H116.973L118.529 33.114H119.328L120.884 37.2697ZM118.241 35.6326H119.597L118.922 33.6936L118.241 35.6326Z" fill="#04652E"/>
<path d="M125.831 33.114V37.2697H125.213V34.8642L125.263 33.7179H125.256L124.001 37.2691H123.445L122.189 33.7179H122.183L122.233 34.8642V37.2697H121.614V33.114H122.608L123.439 35.5196L123.726 36.5081H123.739L124.033 35.5196L124.857 33.114H125.832H125.831Z" fill="#04652E"/>
<path d="M130.479 37.2697H129.773L129.38 36.1804H127.649L127.256 37.2697H126.568L128.124 33.114H128.923L130.479 37.2697ZM127.837 35.6326H129.192L128.518 33.6936L127.837 35.6326Z" fill="#04652E"/>
<path d="M134.59 33.114V37.2697H133.797L132.204 34.6502L131.805 33.9136H131.799L131.824 34.5873V37.2697H131.212V33.114H131.999L133.586 35.7267L133.991 36.4762H133.997L133.972 35.7965V33.114H134.591H134.59Z" fill="#04652E"/>
<path d="M136.477 33.114V37.2697H135.808V33.114H136.477ZM138.851 34.8771V35.4566H136.146V34.8771H138.851ZM139.188 33.114V37.2697H138.514V33.114H139.188Z" fill="#04652E"/>
<path d="M143.83 37.2698H143.124L142.73 36.1804H141L140.606 37.2698H139.919L141.475 33.1141H142.274L143.83 37.2698ZM143.03 31.7478C143.022 31.9448 142.987 32.11 142.928 32.242C142.867 32.3741 142.786 32.4729 142.684 32.5379C142.582 32.6029 142.458 32.6354 142.312 32.6354C142.195 32.6354 142.097 32.6144 142.015 32.5724C141.934 32.5305 141.864 32.4831 141.803 32.4309C141.743 32.3788 141.684 32.3314 141.629 32.2894C141.572 32.2475 141.513 32.2265 141.45 32.2265C141.363 32.2265 141.297 32.263 141.254 32.3368C141.21 32.41 141.18 32.5122 141.163 32.6422H140.707C140.724 32.3443 140.794 32.1209 140.919 31.9719C141.044 31.823 141.219 31.7485 141.444 31.7485C141.556 31.7485 141.653 31.7695 141.735 31.8114C141.816 31.8534 141.886 31.9008 141.947 31.953C142.007 32.0058 142.064 32.0525 142.116 32.0945C142.167 32.1364 142.225 32.1574 142.288 32.1574C142.375 32.1574 142.441 32.1209 142.484 32.0471C142.528 31.9739 142.56 31.8737 142.581 31.7478H143.031H143.03ZM141.187 35.6327H142.543L141.868 33.6936L141.187 35.6327Z" fill="#04652E"/>
<path d="M56.0371 29.719V10.9512H71.4983V15.8137H62.6109V18.1455H69.7772V22.6384H62.6109V24.8564H71.8368V29.719H56.0371Z" fill="#04652E"/>
<path d="M82.8678 10.9512C84.5418 10.9512 85.9619 11.2071 87.128 11.7189C88.2942 12.2308 89.1782 12.9796 89.7801 13.9654C90.382 14.9512 90.683 16.155 90.683 17.5768C90.683 18.9986 90.382 20.2024 89.7801 21.1882C89.1782 22.1739 88.2942 22.9228 87.128 23.4346C85.9619 23.9464 84.5418 24.2024 82.8678 24.2024H79.5667V29.719H72.9929V10.9512H82.8678ZM81.7956 19.5104C82.5104 19.5104 83.0747 19.354 83.4885 19.0412C83.9023 18.7284 84.1092 18.2403 84.1092 17.5768C84.1092 16.9133 83.9023 16.4251 83.4885 16.1123C83.0747 15.7995 82.5104 15.6431 81.7956 15.6431H79.5667V19.5104H81.7956Z" fill="#04652E"/>
<path d="M99.655 10.6667C101.442 10.6667 103.045 10.8895 104.465 11.335C105.886 11.7805 107.141 12.4487 108.232 13.3397L105.58 17.6051C104.696 16.9796 103.77 16.4772 102.801 16.098C101.832 15.7189 100.784 15.5293 99.655 15.5293C99.166 15.5293 98.7757 15.5672 98.4842 15.6431C98.1926 15.7189 97.9857 15.8232 97.8635 15.9559C97.7412 16.0886 97.6801 16.2402 97.6801 16.4108C97.6801 16.6383 97.8534 16.8089 98.202 16.9227C98.55 17.0364 98.9873 17.1596 99.514 17.2923L102.081 17.8895C103.981 18.3255 105.415 18.9701 106.384 19.8232C107.353 20.6762 107.837 21.8611 107.837 23.3777C107.837 24.8943 107.47 26.1407 106.737 27.117C106.003 28.0933 105.011 28.8184 103.76 29.2924C102.509 29.7663 101.094 30.0033 99.514 30.0033C98.329 30.0033 97.144 29.8943 95.959 29.6763C94.774 29.4582 93.6737 29.136 92.658 28.7094C91.6423 28.2829 90.7677 27.7663 90.0341 27.1597L92.6298 22.8089C93.1753 23.245 93.8336 23.6383 94.6048 23.989C95.3759 24.3398 96.1753 24.6194 97.0029 24.8279C97.8305 25.0364 98.601 25.1407 99.3165 25.1407C99.7679 25.1407 100.125 25.1028 100.389 25.027C100.652 24.9511 100.835 24.8516 100.939 24.7284C101.042 24.6052 101.094 24.4582 101.094 24.2876C101.094 24.0222 100.986 23.8232 100.769 23.6905C100.553 23.5578 100.163 23.4251 99.5986 23.2924L96.7772 22.6668C95.7803 22.4393 94.8305 22.136 93.9276 21.7568C93.0248 21.3777 92.2912 20.8232 91.727 20.0933C91.1627 19.3634 90.8805 18.3729 90.8805 17.1217C90.8805 15.8705 91.2238 14.7047 91.9103 13.7378C92.5969 12.771 93.5938 12.0175 94.901 11.4772C96.2082 10.9369 97.7929 10.6667 99.655 10.6667Z" fill="#04652E"/>
<path d="M117.232 10.6667C119.019 10.6667 120.623 10.8895 122.043 11.335C123.463 11.7805 124.718 12.4487 125.809 13.3397L123.157 17.6051C122.273 16.9796 121.347 16.4772 120.378 16.098C119.409 15.7189 118.361 15.5293 117.232 15.5293C116.743 15.5293 116.353 15.5672 116.061 15.6431C115.77 15.7189 115.563 15.8232 115.441 15.9559C115.318 16.0886 115.257 16.2402 115.257 16.4108C115.257 16.6383 115.431 16.8089 115.779 16.9227C116.127 17.0364 116.564 17.1596 117.091 17.2923L119.659 17.8895C121.558 18.3255 122.992 18.9701 123.961 19.8232C124.93 20.6762 125.414 21.8611 125.414 23.3777C125.414 24.8943 125.047 26.1407 124.314 27.117C123.58 28.0933 122.588 28.8184 121.337 29.2924C120.086 29.7663 118.671 30.0033 117.091 30.0033C115.906 30.0033 114.721 29.8943 113.536 29.6763C112.351 29.4582 111.251 29.136 110.235 28.7094C109.219 28.2829 108.345 27.7663 107.611 27.1597L110.207 22.8089C110.752 23.245 111.411 23.6383 112.182 23.989C112.953 24.3398 113.752 24.6194 114.58 24.8279C115.408 25.0364 116.178 25.1407 116.894 25.1407C117.345 25.1407 117.702 25.1028 117.966 25.027C118.229 24.9511 118.412 24.8516 118.516 24.7284C118.619 24.6052 118.671 24.4582 118.671 24.2876C118.671 24.0222 118.563 23.8232 118.347 23.6905C118.13 23.5578 117.74 23.4251 117.176 23.2924L114.354 22.6668C113.357 22.4393 112.408 22.136 111.505 21.7568C110.602 21.3777 109.868 20.8232 109.304 20.0933C108.74 19.3634 108.458 18.3729 108.458 17.1217C108.458 15.8705 108.801 14.7047 109.487 13.7378C110.174 12.771 111.171 12.0175 112.478 11.4772C113.785 10.9369 115.37 10.6667 117.232 10.6667Z" fill="#04652E"/>
<path d="M135.543 10.6667C137.518 10.6667 139.211 11.0459 140.621 11.8042C142.032 12.5625 143.114 13.662 143.866 15.1028C144.618 16.5435 144.995 18.2876 144.995 20.335C144.995 22.3824 144.618 24.1265 143.866 25.5672C143.114 27.008 142.032 28.1075 140.621 28.8658C139.211 29.6241 137.518 30.0033 135.543 30.0033C133.568 30.0033 131.899 29.6241 130.479 28.8658C129.058 28.1075 127.968 27.008 127.206 25.5672C126.444 24.1265 126.063 22.3824 126.063 20.335C126.063 18.2876 126.444 16.5435 127.206 15.1028C127.968 13.662 129.058 12.5625 130.479 11.8042C131.899 11.0459 133.587 10.6667 135.543 10.6667ZM135.543 15.6431C134.903 15.6431 134.381 15.8089 133.977 16.1407C133.573 16.4724 133.272 16.9796 133.074 17.662C132.877 18.3445 132.778 19.2355 132.778 20.335C132.778 21.4345 132.877 22.3018 133.074 22.9938C133.272 23.6857 133.573 24.1976 133.977 24.5293C134.381 24.8611 134.903 25.027 135.543 25.027C136.182 25.027 136.704 24.8611 137.109 24.5293C137.513 24.1976 137.809 23.6857 137.998 22.9938C138.186 22.3018 138.28 21.4156 138.28 20.335C138.28 19.2544 138.186 18.3445 137.998 17.662C137.809 16.9796 137.513 16.4724 137.109 16.1407C136.704 15.8089 136.182 15.6431 135.543 15.6431Z" fill="#04652E"/>
</svg>
