<svg width="20" height="20" viewBox="0 0 20 20" fill="none" xmlns="http://www.w3.org/2000/svg">
<g clip-path="url(#clip0_6039_2043)">
<path d="M9.99935 16.6666V18.3333M9.99935 1.66663V3.33329M14.166 16.6666V18.3333M14.166 1.66663V3.33329M1.66602 9.99996H3.33268M1.66602 14.1666H3.33268M1.66602 5.83329H3.33268M16.666 9.99996H18.3327M16.666 14.1666H18.3327M16.666 5.83329H18.3327M5.83268 16.6666V18.3333M5.83268 1.66663V3.33329M4.99935 3.33329H14.9993C15.9198 3.33329 16.666 4.07948 16.666 4.99996V15C16.666 15.9204 15.9198 16.6666 14.9993 16.6666H4.99935C4.07887 16.6666 3.33268 15.9204 3.33268 15V4.99996C3.33268 4.07948 4.07887 3.33329 4.99935 3.33329ZM7.49935 6.66663H12.4993C12.9596 6.66663 13.3327 7.03972 13.3327 7.49996V12.5C13.3327 12.9602 12.9596 13.3333 12.4993 13.3333H7.49935C7.03911 13.3333 6.66602 12.9602 6.66602 12.5V7.49996C6.66602 7.03972 7.03911 6.66663 7.49935 6.66663Z" stroke="#034D22" stroke-width="1.66667" stroke-linecap="round" stroke-linejoin="round"/>
</g>
<defs>
<clipPath id="clip0_6039_2043">
<rect width="20" height="20" fill="white"/>
</clipPath>
</defs>
</svg>
