<svg width="16" height="16" viewBox="0 0 16 16" fill="none" xmlns="http://www.w3.org/2000/svg">
<path d="M14.8019 12.2131C13.3911 14.4862 10.8723 15.9999 8 15.9999C3.5816 16.0001 0 12.4183 0 8.00011C0 7.24513 0.104574 6.51458 0.300154 5.82222C1.11587 8.84985 3.66384 11.167 6.81587 11.6452C8.09476 12.5122 9.63811 13.0188 11.2996 13.0188C12.5557 13.0188 13.7443 12.7293 14.8019 12.2133V12.2131Z" fill="#04652E"/>
<path d="M16 7.99998C16 9.54604 15.5615 10.9896 14.8019 12.2132C13.7441 12.7292 12.5558 13.0187 11.2997 13.0187C9.63816 13.0187 8.09481 12.5121 6.81592 11.645C7.21042 11.7047 7.61431 11.7358 8.0253 11.7358C11.6885 11.7358 14.7769 9.27365 15.7251 5.91372C15.9044 6.57894 16 7.27798 16 7.99998Z" fill="#099939"/>
<path d="M6.81592 11.645C3.66409 11.167 1.11556 8.84986 0.300049 5.82202C0.923108 3.61449 2.47022 1.79415 4.4974 0.805603C3.73804 2.02918 3.29929 3.47276 3.29929 5.01861C3.29929 7.77531 4.69397 10.2065 6.81592 11.645Z" fill="#099939"/>
<path d="M15.7251 5.91353C14.7768 9.27346 11.6884 11.7356 8.02521 11.7356C7.61401 11.7356 7.21012 11.7045 6.81583 11.6448C4.69388 10.2063 3.29956 7.7752 3.29956 5.0185C3.29956 3.47243 3.7381 2.02907 4.49767 0.80549C5.55531 0.289509 6.74382 0 7.99995 0C11.6966 0 14.8073 2.50706 15.7251 5.91353Z" fill="#7FBC53"/>
</svg>
