<svg width="132" height="42" viewBox="0 0 132 42" fill="none" xmlns="http://www.w3.org/2000/svg">
<g clip-path="url(#clip0_1304_2125)">
<path d="M38.9059 32.0592C35.1978 38.0261 28.5775 41.9994 21.0276 41.9994C9.41414 42 0 32.5978 0 20.9997C0 19.0177 0.274841 17.1002 0.788937 15.2827C2.93292 23.2305 9.6304 29.3128 17.9151 30.5676C21.2767 32.8438 25.333 34.1736 29.7004 34.1736C33.0023 34.1736 36.1258 33.4135 38.9059 32.0592Z" fill="#04652E"/>
<path d="M42.0556 20.9997C42.0556 25.0578 40.9031 28.8474 38.9064 32.0592C36.1262 33.4135 33.0022 34.1735 29.7009 34.1735C25.3335 34.1735 21.2771 32.8438 17.9155 30.5676C18.9525 30.7245 20.0141 30.806 21.0948 30.806C30.7236 30.806 38.8413 24.3426 41.334 15.5227C41.8048 17.2685 42.0561 19.1046 42.0561 20.9991L42.0556 20.9997Z" fill="#099939"/>
<path d="M17.9152 30.5675C9.63053 29.3127 2.93304 23.2304 0.789062 15.2826C2.42716 9.48743 6.49339 4.70922 11.8216 2.11426C9.82543 5.32597 8.67241 9.11508 8.67241 13.1732C8.67241 20.4097 12.3373 26.7915 17.9146 30.5675H17.9152Z" fill="#099939"/>
<path d="M41.3331 15.5233C38.8403 24.3427 30.7232 30.8066 21.0939 30.8066C20.0131 30.8066 18.9515 30.7251 17.9146 30.5682C12.3373 26.7922 8.67236 20.4103 8.67236 13.1738C8.67236 9.11572 9.82484 5.32607 11.8215 2.1149C14.6023 0.760008 17.7263 0 21.0276 0C30.744 0 38.9208 6.5809 41.3331 15.5233Z" fill="#7FBC53"/>
<path d="M47.7939 29.8017V12.1985H62.4295V16.7591H54.0167V18.9462H60.8002V23.1601H54.0167V25.2405H62.7498V29.8011H47.7939V29.8017Z" fill="#04652E"/>
<path d="M73.1921 12.1985C74.7765 12.1985 76.1206 12.4385 77.2249 12.9186C78.3287 13.3986 79.1652 14.1012 79.7352 15.0258C80.3046 15.9504 80.5898 17.0795 80.5898 18.4131C80.5898 19.7466 80.3046 20.8757 79.7352 21.8003C79.1652 22.7249 78.3287 23.4275 77.2249 23.9075C76.1206 24.3876 74.7765 24.6276 73.1921 24.6276H70.0675V29.8017H63.8447V12.1985H73.1921ZM72.177 20.2267C72.8537 20.2267 73.3875 20.0801 73.7795 19.7865C74.171 19.4929 74.367 19.0353 74.367 18.4131C74.367 17.7908 74.171 17.3326 73.7795 17.0396C73.3875 16.746 72.8537 16.5994 72.177 16.5994H70.067V20.2267H72.177Z" fill="#04652E"/>
<path d="M89.0825 11.9316C90.7737 11.9316 92.2914 12.1411 93.636 12.5582C94.9801 12.976 96.1687 13.6031 97.2013 14.4386L94.691 18.4393C93.8539 17.8526 92.9774 17.3818 92.0603 17.0259C91.1433 16.6705 90.1507 16.4922 89.0825 16.4922C88.6193 16.4922 88.2498 16.5283 87.9744 16.5989C87.6979 16.6699 87.5025 16.7678 87.3869 16.8925C87.2709 17.0171 87.2134 17.1593 87.2134 17.3189C87.2134 17.5322 87.3776 17.6924 87.7072 17.799C88.0363 17.9056 88.4502 18.0215 88.9489 18.1457L91.3793 18.7056C93.1772 19.1145 94.535 19.7193 95.4521 20.5192C96.3691 21.3191 96.8274 22.4307 96.8274 23.8534C96.8274 25.2761 96.4802 26.4451 95.786 27.3609C95.0918 28.2767 94.1523 28.9569 92.9686 29.4014C91.7844 29.8454 90.4447 30.0679 88.9495 30.0679C87.8277 30.0679 86.7059 29.9652 85.5846 29.7612C84.4628 29.5573 83.4214 29.2544 82.46 28.8547C81.4987 28.4544 80.6708 27.9705 79.9761 27.4008L82.4332 23.3203C82.9495 23.7293 83.5726 24.0983 84.3029 24.4269C85.0327 24.7561 85.7894 25.0185 86.5728 25.2137C87.3563 25.4095 88.0861 25.5073 88.7628 25.5073C89.1904 25.5073 89.5282 25.4718 89.7778 25.4007C90.027 25.3296 90.2005 25.2367 90.2985 25.1208C90.396 25.0054 90.4452 24.8676 90.4452 24.7074C90.4452 24.4586 90.3423 24.2722 90.1381 24.1475C89.9333 24.0234 89.5638 23.8988 89.03 23.7741L86.3593 23.1874C85.4154 22.9742 84.5164 22.6899 83.6618 22.3339C82.8072 21.9785 82.1129 21.4585 81.5786 20.7734C81.0442 20.0894 80.7776 19.1599 80.7776 17.9866C80.7776 16.8132 81.1023 15.7197 81.7521 14.8126C82.402 13.906 83.3453 13.199 84.5832 12.6922C85.8206 12.1853 87.3207 11.9322 89.0836 11.9322L89.0825 11.9316Z" fill="#04652E"/>
<path d="M105.721 11.9316C107.412 11.9316 108.93 12.1411 110.274 12.5582C111.618 12.976 112.807 13.6031 113.839 14.4386L111.329 18.4393C110.492 17.8526 109.616 17.3818 108.699 17.0259C107.781 16.6705 106.789 16.4922 105.721 16.4922C105.258 16.4922 104.888 16.5283 104.613 16.5989C104.336 16.6699 104.141 16.7678 104.025 16.8925C103.909 17.0171 103.852 17.1593 103.852 17.3189C103.852 17.5322 104.016 17.6924 104.345 17.799C104.674 17.9056 105.088 18.0215 105.587 18.1457L108.017 18.7056C109.815 19.1145 111.173 19.7193 112.09 20.5192C113.007 21.3191 113.466 22.4307 113.466 23.8534C113.466 25.2761 113.118 26.4451 112.424 27.3609C111.73 28.2767 110.79 28.9569 109.607 29.4014C108.423 29.8454 107.083 30.0679 105.588 30.0679C104.466 30.0679 103.344 29.9652 102.223 29.7612C101.101 29.5573 100.06 29.2544 99.0982 28.8547C98.1368 28.4544 97.309 27.9705 96.6143 27.4008L99.0714 23.3203C99.5877 23.7293 100.211 24.0983 100.941 24.4269C101.671 24.7561 102.428 25.0185 103.211 25.2137C103.994 25.4095 104.724 25.5073 105.401 25.5073C105.829 25.5073 106.166 25.4718 106.416 25.4007C106.665 25.3296 106.839 25.2367 106.937 25.1208C107.034 25.0054 107.083 24.8676 107.083 24.7074C107.083 24.4586 106.98 24.2722 106.776 24.1475C106.572 24.0234 106.202 23.8988 105.668 23.7741L102.997 23.1874C102.054 22.9742 101.155 22.6899 100.3 22.3339C99.4453 21.9785 98.7511 21.4585 98.2168 20.7734C97.6824 20.0894 97.4158 19.1599 97.4158 17.9866C97.4158 16.8132 97.7404 15.7197 98.3903 14.8126C99.0402 13.906 99.9835 13.199 101.221 12.6922C102.459 12.1853 103.959 11.9322 105.722 11.9322L105.721 11.9316Z" fill="#04652E"/>
<path d="M123.053 11.9316C124.923 11.9316 126.525 12.2876 127.86 12.9984C129.196 13.7097 130.22 14.7409 130.932 16.092C131.644 17.4436 132 19.079 132 20.9992C132 22.9195 131.644 24.556 130.932 25.907C130.22 27.2586 129.196 28.2899 127.86 29.0007C126.525 29.712 124.923 30.0674 123.053 30.0674C121.184 30.0674 119.604 29.712 118.26 29.0007C116.915 28.2899 115.883 27.2581 115.162 25.907C114.441 24.556 114.08 22.92 114.08 20.9992C114.08 19.0784 114.44 17.4431 115.162 16.092C115.883 14.7409 116.916 13.7092 118.26 12.9984C119.604 12.2876 121.201 11.9316 123.053 11.9316ZM123.053 16.5994C122.448 16.5994 121.954 16.7552 121.571 17.0663C121.188 17.3775 120.903 17.8531 120.717 18.4934C120.53 19.1337 120.436 19.9697 120.436 21.0003C120.436 22.031 120.53 22.8451 120.717 23.4941C120.903 24.1437 121.188 24.6238 121.571 24.9343C121.954 25.2454 122.448 25.4013 123.053 25.4013C123.659 25.4013 124.153 25.246 124.536 24.9343C124.918 24.6232 125.199 24.1432 125.377 23.4941C125.555 22.8451 125.644 22.014 125.644 21.0003C125.644 19.9866 125.555 19.1331 125.377 18.4934C125.199 17.8531 124.918 17.378 124.536 17.0663C124.152 16.7552 123.658 16.5994 123.053 16.5994Z" fill="#04652E"/>
</g>
<defs>
<clipPath id="clip0_1304_2125">
<rect width="132" height="42" fill="white"/>
</clipPath>
</defs>
</svg>
