<svg width="12" height="13" viewBox="0 0 12 13" fill="none" xmlns="http://www.w3.org/2000/svg">
<g clip-path="url(#clip0_6211_736)">
<path fill-rule="evenodd" clip-rule="evenodd" d="M7.00092 0.754364C8.47769 0.754364 9.54437 0.800239 10.2511 0.847439C11.072 0.902264 11.7192 1.52496 11.7847 2.35276C11.8345 2.98261 11.8801 3.89709 11.8801 5.13311C11.8801 6.36914 11.8345 7.28364 11.7847 7.91349C11.7192 8.74129 11.072 9.36399 10.2511 9.41881L10.2158 9.42119C10.1874 9.42311 10.1581 9.42509 10.1286 9.42694V10.2214C10.1286 10.7379 9.53814 11.0318 9.12604 10.7205L7.92409 9.81256C7.93002 9.76846 7.93464 9.72384 7.93784 9.67879C7.97234 9.19314 8.00179 8.51954 8.00179 7.63526C8.00179 6.75099 7.97234 6.07741 7.93784 5.59176C7.86399 4.55194 7.04717 3.76046 6.02174 3.69511C5.49674 3.66166 4.74834 3.63184 3.74814 3.63184C3.11564 3.63184 2.58384 3.64374 2.14554 3.66099C2.16352 3.13419 2.18972 2.70016 2.21719 2.35276C2.28264 1.52496 2.92989 0.902264 3.75074 0.847439C4.45749 0.800239 5.52419 0.754364 7.00092 0.754364ZM3.74824 4.25736C4.73607 4.25736 5.47114 4.28681 5.98204 4.31936C6.69984 4.36511 7.26262 4.91329 7.31397 5.63609C7.34734 6.10609 7.37634 6.76486 7.37634 7.63526C7.37634 8.50566 7.34734 9.16446 7.31397 9.63446C7.26262 10.3573 6.69984 10.9054 5.98204 10.9512C5.56334 10.9778 4.99409 11.0024 4.25862 11.0104L2.88752 12.1073C2.47672 12.436 1.87162 12.1415 1.87162 11.6185V10.9713C1.74222 10.9649 1.62324 10.9581 1.51442 10.9512C0.796642 10.9054 0.233842 10.3573 0.182492 9.63446C0.149117 9.16446 0.120117 8.50566 0.120117 7.63526C0.120117 6.76489 0.149117 6.10609 0.182492 5.63609C0.233842 4.91329 0.796642 4.36511 1.51442 4.31939C2.02534 4.28681 2.76042 4.25736 3.74824 4.25736ZM2.24694 6.13399C1.97057 6.13399 1.74652 6.35804 1.74652 6.63441C1.74652 6.91079 1.97057 7.13484 2.24694 7.13484H5.24952C5.52592 7.13484 5.74994 6.91081 5.74994 6.63441C5.74994 6.35801 5.52592 6.13399 5.24952 6.13399H2.24694ZM2.24694 8.13571C1.97057 8.13571 1.74652 8.35974 1.74652 8.63614C1.74652 8.91254 1.97057 9.13656 2.24694 9.13656H3.74824C4.02462 9.13656 4.24867 8.91251 4.24867 8.63614C4.24867 8.35976 4.02462 8.13571 3.74824 8.13571H2.24694Z" fill="#005B27"/>
</g>
<defs>
<clipPath id="clip0_6211_736">
<rect width="12" height="12" fill="white" transform="translate(0 0.5)"/>
</clipPath>
</defs>
</svg>
