<svg width="20" height="20" viewBox="0 0 20 20" fill="none" xmlns="http://www.w3.org/2000/svg">
<path d="M13.125 19.375H6.875L7.5 15.625H12.5L13.125 19.375Z" stroke="#7FBC53" stroke-width="1.5" stroke-linecap="round" stroke-linejoin="round"/>
<path d="M5 19.375H15" stroke="#7FBC53" stroke-width="1.5" stroke-linecap="round" stroke-linejoin="round"/>
<path d="M3.125 0.625H16.875C16.875 0.625 19.375 0.625 19.375 3.125V13.125C19.375 13.125 19.375 15.625 16.875 15.625H3.125C3.125 15.625 0.625 15.625 0.625 13.125V3.125C0.625 3.125 0.625 0.625 3.125 0.625Z" stroke="#7FBC53" stroke-width="1.5" stroke-linecap="round" stroke-linejoin="round"/>
<path d="M9.37995 11.6666V6.84664H10.9V11.6666H9.37995ZM9.19995 5.49664C9.19995 4.97664 9.58995 4.55664 10.14 4.55664C10.69 4.55664 11.09 4.97664 11.09 5.49664C11.09 6.00664 10.69 6.42664 10.14 6.42664C9.58995 6.42664 9.19995 6.00664 9.19995 5.49664Z" fill="#7FBC53"/>
</svg>
