<svg width="16" height="16" viewBox="0 0 16 16" fill="none" xmlns="http://www.w3.org/2000/svg">
<g clip-path="url(#clip0_1510_906)">
<path d="M10.6667 6.26667C10.6946 6.25195 10.718 6.22989 10.7343 6.20287C10.7506 6.17585 10.7592 6.14489 10.7592 6.11333C10.7592 6.08178 10.7506 6.05082 10.7343 6.0238C10.718 5.99677 10.6946 5.97472 10.6667 5.96L9.64667 5.6L9.33333 5.48667C9.23339 5.23608 9.21932 4.95943 9.29333 4.7C9.58785 4.38362 9.81247 4.0088 9.9526 3.5999C10.0927 3.191 10.1452 2.75719 10.1067 2.32667C10.1304 2.03355 10.0938 1.73867 9.99921 1.46023C9.9046 1.18178 9.75397 0.925666 9.55658 0.70767C9.3592 0.489674 9.11926 0.314418 8.85154 0.192708C8.58383 0.0709989 8.29403 0.00541491 8 0C7.69053 0.00135457 7.38529 0.0719701 7.10667 0.206667C7.08533 0.217721 7.06653 0.233091 7.05146 0.251799C7.03638 0.270506 7.02536 0.292145 7.01909 0.315339C7.01282 0.338534 7.01144 0.362778 7.01504 0.386534C7.01864 0.41029 7.02714 0.433037 7.04 0.453333C7.40973 1.00776 7.60479 1.66028 7.6 2.32667C7.6452 3.17561 7.42879 4.01797 6.98 4.74C6.96833 4.76149 6.96222 4.78555 6.96222 4.81C6.96222 4.83445 6.96833 4.85851 6.98 4.88C6.98588 4.90497 6.99821 4.92797 7.01576 4.94668C7.03331 4.9654 7.05546 4.97919 7.08 4.98667C8.35333 5.46667 9.27333 5.87333 9.68 6.68L9.72 6.76C9.73511 6.78339 9.75584 6.80262 9.78029 6.81594C9.80475 6.82926 9.83215 6.83624 9.86 6.83624C9.88785 6.83624 9.91525 6.82926 9.93971 6.81594C9.96416 6.80262 9.98489 6.78339 10 6.76C10.1879 6.55366 10.4144 6.38607 10.6667 6.26667Z" fill="#005B27"/>
<path d="M8.17335 8.66667H8.96668C8.99921 8.66678 9.03106 8.65737 9.0583 8.6396C9.08555 8.62183 9.107 8.59648 9.12001 8.56667L9.24668 8.26667C9.25357 8.23594 9.25357 8.20406 9.24668 8.17333C9.18795 7.78556 9.07343 7.40832 8.90668 7.05333C8.60668 6.44667 7.64001 6.09333 6.30001 5.6L6.00001 5.48667C5.90007 5.23608 5.886 4.95943 5.96001 4.7C6.25453 4.38362 6.47915 4.0088 6.61928 3.5999C6.75941 3.191 6.8119 2.75719 6.77334 2.32667C6.79707 2.03355 6.7605 1.73867 6.66589 1.46023C6.57128 1.18178 6.42064 0.925666 6.22326 0.70767C6.02588 0.489674 5.78593 0.314418 5.51822 0.192708C5.25051 0.0709989 4.96071 0.00541491 4.66668 0C4.37322 0.00631209 4.08414 0.0725555 3.81722 0.194661C3.55029 0.316767 3.31115 0.492156 3.11447 0.710055C2.9178 0.927955 2.76776 1.18376 2.67356 1.46177C2.57935 1.73977 2.54298 2.0341 2.56668 2.32667C2.52904 2.75096 2.58078 3.17843 2.71858 3.58149C2.85638 3.98454 3.07716 4.35422 3.36668 4.66667C3.44288 4.93211 3.43119 5.21508 3.33334 5.47333L2.99334 5.6C1.66001 6.09333 0.686678 6.44667 0.386678 7.05333C0.130037 7.67018 -0.00139941 8.3319 1.12353e-05 9C1.12353e-05 9.08841 0.0351302 9.17319 0.0976423 9.2357C0.160154 9.29821 0.244939 9.33333 0.333345 9.33333H6.53335C6.5775 9.33195 6.61985 9.31548 6.65334 9.28667C7.05908 8.88863 7.60497 8.66597 8.17335 8.66667Z" fill="#005B27"/>
<path d="M13.8267 15.8867C13.9826 15.9736 14.1618 16.0098 14.3393 15.9903C14.5167 15.9708 14.6838 15.8966 14.8171 15.7778C14.9505 15.6591 15.0436 15.5018 15.0835 15.3278C15.1235 15.1538 15.1083 14.9717 15.04 14.8067L14.22 12.9333C14.207 12.9002 14.2045 12.8639 14.2128 12.8293C14.2212 12.7947 14.24 12.7635 14.2667 12.74L15.74 11.4067C15.8599 11.2898 15.9428 11.1403 15.9784 10.9767C16.0139 10.8132 16.0006 10.6427 15.94 10.4867C15.8735 10.3369 15.7636 10.2105 15.6246 10.1237C15.4856 10.037 15.3238 9.99389 15.16 10H13.4933C13.4608 10.0001 13.429 9.99071 13.4017 9.97294C13.3745 9.95517 13.353 9.92981 13.34 9.9L12.4467 7.82C12.3754 7.67673 12.2656 7.55619 12.1296 7.47192C11.9935 7.38766 11.8367 7.34301 11.6767 7.34301C11.5167 7.34301 11.3598 7.38766 11.2238 7.47192C11.0878 7.55619 10.9779 7.67673 10.9067 7.82L10 9.9C9.98699 9.92981 9.96554 9.95517 9.93829 9.97294C9.91105 9.99071 9.8792 10.0001 9.84667 10H8.18C8.01416 9.99645 7.85109 10.0429 7.71198 10.1332C7.57288 10.2236 7.46417 10.3537 7.4 10.5067C7.33906 10.6659 7.3268 10.8396 7.36478 11.0058C7.40276 11.1719 7.48928 11.3231 7.61333 11.44L9.08 12.74C9.10555 12.7643 9.12307 12.7959 9.13022 12.8304C9.13736 12.865 9.1338 12.9009 9.12 12.9333L8.30667 14.8067C8.23237 14.9686 8.21236 15.1501 8.2496 15.3243C8.28684 15.4985 8.37934 15.656 8.51333 15.7733C8.67225 15.9176 8.87872 15.9983 9.09333 16C9.24261 15.9971 9.38898 15.9583 9.52 15.8867L11.5933 14.72C11.6168 14.7037 11.6447 14.6949 11.6733 14.6949C11.7019 14.6949 11.7299 14.7037 11.7533 14.72L13.8267 15.8867Z" fill="#005B27"/>
</g>
<defs>
<clipPath id="clip0_1510_906">
<rect width="16" height="16" fill="white"/>
</clipPath>
</defs>
</svg>
