<svg width="20" height="20" viewBox="0 0 20 20" fill="none" xmlns="http://www.w3.org/2000/svg">
<g clip-path="url(#clip0_1735_347)">
<path fill-rule="evenodd" clip-rule="evenodd" d="M6.66667 0C6.20643 0 5.83333 0.373096 5.83333 0.833333V4.16667H0.833333C0.373096 4.16667 0 4.53977 0 5V12.5C0 12.9602 0.373096 13.3333 0.833333 13.3333V19.1667C0.833333 19.6269 1.20643 20 1.66667 20H18.3333C18.7936 20 19.1667 19.6269 19.1667 19.1667V13.3333C19.6269 13.3333 20 12.9602 20 12.5V5C20 4.53977 19.6269 4.16667 19.1667 4.16667H14.1667V0.833333C14.1667 0.373096 13.7936 0 13.3333 0H6.66667ZM12.5 4.16667V1.66667H7.5V4.16667H12.5ZM17.5 13.3333H12.5V14.1667C12.5 14.6269 12.1269 15 11.6667 15H8.33333C7.87309 15 7.5 14.6269 7.5 14.1667V13.3333H2.5V18.3333H17.5V13.3333ZM18.3333 11.6667H12.5V10.8333C12.5 10.3731 12.1269 10 11.6667 10H8.33333C7.87309 10 7.5 10.3731 7.5 10.8333V11.6667H1.66667V5.83333H18.3333V11.6667ZM9.16667 13.3333H10.8333V11.6667H9.16667V13.3333Z" fill="#7FBC53"/>
</g>
<defs>
<clipPath id="clip0_1735_347">
<rect width="20" height="20" fill="white"/>
</clipPath>
</defs>
</svg>
