<svg width="44" height="44" viewBox="0 0 44 44" fill="none" xmlns="http://www.w3.org/2000/svg">
<rect width="44" height="44" rx="8" fill="#7FBC53" fill-opacity="0.08"/>
<g clip-path="url(#clip0_1735_301)">
<path d="M13.875 17C13.875 17.4973 14.0725 17.9742 14.4242 18.3258C14.7758 18.6775 15.2527 18.875 15.75 18.875C16.2473 18.875 16.7242 18.6775 17.0758 18.3258C17.4275 17.9742 17.625 17.4973 17.625 17C17.625 16.5027 17.4275 16.0258 17.0758 15.6742C16.7242 15.3225 16.2473 15.125 15.75 15.125C15.2527 15.125 14.7758 15.3225 14.4242 15.6742C14.0725 16.0258 13.875 16.5027 13.875 17Z" stroke="#7FBC53" stroke-width="1.5" stroke-linecap="round" stroke-linejoin="round"/>
<path d="M15.75 20.125C14.9212 20.125 14.1263 20.4542 13.5403 21.0403C12.9542 21.6263 12.625 22.4212 12.625 23.25V25.125H13.875L14.5 30.125H17" stroke="#7FBC53" stroke-width="1.5" stroke-linecap="round" stroke-linejoin="round"/>
<path d="M26.375 17C26.375 17.4973 26.5725 17.9742 26.9242 18.3258C27.2758 18.6775 27.7527 18.875 28.25 18.875C28.7473 18.875 29.2242 18.6775 29.5758 18.3258C29.9275 17.9742 30.125 17.4973 30.125 17C30.125 16.5027 29.9275 16.0258 29.5758 15.6742C29.2242 15.3225 28.7473 15.125 28.25 15.125C27.7527 15.125 27.2758 15.3225 26.9242 15.6742C26.5725 16.0258 26.375 16.5027 26.375 17Z" stroke="#7FBC53" stroke-width="1.5" stroke-linecap="round" stroke-linejoin="round"/>
<path d="M28.25 20.125C29.0788 20.125 29.8737 20.4542 30.4597 21.0403C31.0458 21.6263 31.375 22.4212 31.375 23.25V25.125H30.125L29.5 30.125H27" stroke="#7FBC53" stroke-width="1.5" stroke-linecap="round" stroke-linejoin="round"/>
<path d="M19.9166 14.7C19.9166 15.2526 20.1361 15.7825 20.5268 16.1732C20.9175 16.5639 21.4474 16.7834 22 16.7834C22.5525 16.7834 23.0824 16.5639 23.4731 16.1732C23.8638 15.7825 24.0833 15.2526 24.0833 14.7C24.0833 14.1475 23.8638 13.6176 23.4731 13.2269C23.0824 12.8362 22.5525 12.6167 22 12.6167C21.4474 12.6167 20.9175 12.8362 20.5268 13.2269C20.1361 13.6176 19.9166 14.1475 19.9166 14.7Z" stroke="#7FBC53" stroke-width="1.3" stroke-linecap="round" stroke-linejoin="round"/>
<path d="M26.375 23.25C26.375 22.0897 25.9141 20.9769 25.0936 20.1564C24.2731 19.3359 23.1603 18.875 22 18.875C20.8397 18.875 19.7269 19.3359 18.9064 20.1564C18.0859 20.9769 17.625 22.0897 17.625 23.25V25.125H19.5L20.125 31.375H23.875L24.5 25.125H26.375V23.25Z" stroke="#7FBC53" stroke-width="1.5" stroke-linecap="round" stroke-linejoin="round"/>
</g>
<defs>
<clipPath id="clip0_1735_301">
<rect width="20" height="20" fill="white" transform="translate(12 12)"/>
</clipPath>
</defs>
</svg>
