<svg width="16" height="16" viewBox="0 0 16 16" fill="none" xmlns="http://www.w3.org/2000/svg">
<g clip-path="url(#clip0_1510_894)">
<path d="M12.5 2.83333C11.8407 2.83333 11.1963 3.02883 10.6481 3.3951C10.0999 3.76137 9.67269 4.28197 9.4204 4.89106C9.16811 5.50014 9.1021 6.17036 9.23071 6.81697C9.35933 7.46357 9.6768 8.05751 10.143 8.52369C10.6092 8.98986 11.2031 9.30733 11.8497 9.43595C12.4963 9.56457 13.1665 9.49856 13.7756 9.24627C14.3847 8.99397 14.9053 8.56673 15.2716 8.01857C15.6378 7.4704 15.8333 6.82594 15.8333 6.16667C15.8333 5.28261 15.4821 4.43477 14.857 3.80964C14.2319 3.18452 13.3841 2.83333 12.5 2.83333ZM12.5 8.16667C12.1044 8.16667 11.7178 8.04937 11.3889 7.82961C11.06 7.60984 10.8036 7.29749 10.6522 6.93203C10.5009 6.56658 10.4613 6.16445 10.5384 5.77649C10.6156 5.38852 10.8061 5.03216 11.0858 4.75245C11.3655 4.47275 11.7219 4.28227 12.1098 4.2051C12.4978 4.12793 12.8999 4.16753 13.2654 4.31891C13.6308 4.47028 13.9432 4.72663 14.1629 5.05553C14.3827 5.38442 14.5 5.7711 14.5 6.16667C14.5 6.6971 14.2893 7.20581 13.9142 7.58088C13.5391 7.95595 13.0304 8.16667 12.5 8.16667Z" fill="#005B27"/>
<path d="M12.8067 10.1533H12.1933C12.1473 10.1486 12.1009 10.1539 12.0572 10.1689C12.0134 10.1839 11.9735 10.2081 11.94 10.24C11.9064 10.2717 11.8796 10.3099 11.8613 10.3523C11.8429 10.3948 11.8334 10.4405 11.8333 10.4867V11.1533C11.8333 12.0816 11.4646 12.9718 10.8082 13.6282C10.1518 14.2846 9.26159 14.6533 8.33333 14.6533C7.40507 14.6533 6.51483 14.2846 5.85845 13.6282C5.20208 12.9718 4.83333 12.0816 4.83333 11.1533V9.27333C5.7647 9.1159 6.61031 8.63395 7.2204 7.91282C7.8305 7.19169 8.1657 6.27792 8.16666 5.33333V3.33333C8.1648 2.75663 7.97603 2.19607 7.62866 1.73572C7.2813 1.27537 6.79405 0.940033 6.23999 0.78C6.21658 0.772463 6.19648 0.757064 6.18312 0.736409C6.16976 0.715755 6.16394 0.691117 6.16666 0.666667C6.16666 0.489856 6.09642 0.320286 5.9714 0.195262C5.84637 0.0702379 5.67681 0 5.49999 0C5.32318 0 5.15361 0.0702379 5.02859 0.195262C4.90357 0.320286 4.83333 0.489856 4.83333 0.666667V2.33333C4.83333 2.51014 4.90357 2.67971 5.02859 2.80474C5.15361 2.92976 5.32318 3 5.49999 3C5.67681 3 5.84637 2.92976 5.9714 2.80474C6.09642 2.67971 6.16666 2.51014 6.16666 2.33333C6.16654 2.31791 6.17089 2.30279 6.17917 2.28978C6.18744 2.27677 6.19931 2.26643 6.21333 2.26C6.22568 2.25357 6.2394 2.25022 6.25333 2.25022C6.26725 2.25022 6.28097 2.25357 6.29333 2.26C6.46105 2.38417 6.59729 2.54597 6.69108 2.73239C6.78487 2.91881 6.83359 3.12465 6.83333 3.33333V5.33333C6.83333 6.04058 6.55238 6.71885 6.05228 7.21895C5.55218 7.71905 4.8739 8 4.16666 8C3.45942 8 2.78114 7.71905 2.28104 7.21895C1.78095 6.71885 1.49999 6.04058 1.49999 5.33333V3.33333C1.50077 3.12578 1.54999 2.92126 1.64374 2.73608C1.73749 2.5509 1.87317 2.39016 2.03999 2.26667C2.05235 2.26024 2.06607 2.25688 2.07999 2.25688C2.09392 2.25688 2.10764 2.26024 2.11999 2.26667C2.13401 2.27309 2.14588 2.28343 2.15416 2.29644C2.16244 2.30945 2.16678 2.32458 2.16666 2.34C2.16666 2.51681 2.2369 2.68638 2.36192 2.8114C2.48695 2.93643 2.65652 3.00667 2.83333 3.00667C3.01014 3.00667 3.17971 2.93643 3.30473 2.8114C3.42976 2.68638 3.49999 2.51681 3.49999 2.34V0.666667C3.49999 0.489856 3.42976 0.320286 3.30473 0.195262C3.17971 0.0702379 3.01014 0 2.83333 0C2.65652 0 2.48695 0.0702379 2.36192 0.195262C2.2369 0.320286 2.16666 0.489856 2.16666 0.666667C2.16638 0.688899 2.15917 0.710489 2.14602 0.728418C2.13287 0.746348 2.11445 0.75972 2.09333 0.766667C1.53708 0.927334 1.04824 1.26467 0.700655 1.72772C0.353071 2.19076 0.165634 2.75435 0.166661 3.33333V5.33333C0.167618 6.27792 0.502825 7.19169 1.11292 7.91282C1.72301 8.63395 2.56862 9.1159 3.49999 9.27333V11.1667C3.49999 12.4485 4.00922 13.6779 4.91564 14.5843C5.82207 15.4908 7.05145 16 8.33333 16C9.61521 16 10.8446 15.4908 11.751 14.5843C12.6574 13.6779 13.1667 12.4485 13.1667 11.1667V10.5C13.1666 10.4538 13.1571 10.4081 13.1387 10.3657C13.1204 10.3233 13.0936 10.285 13.06 10.2533C13.0265 10.2207 12.9868 10.1951 12.9433 10.1779C12.8999 10.1608 12.8534 10.1524 12.8067 10.1533Z" fill="#005B27"/>
<path d="M11.5 6.16667C11.5 6.43188 11.6054 6.68624 11.7929 6.87377C11.9804 7.06131 12.2348 7.16667 12.5 7.16667C12.7652 7.16667 13.0196 7.06131 13.2071 6.87377C13.3946 6.68624 13.5 6.43188 13.5 6.16667C13.5 5.90145 13.3946 5.6471 13.2071 5.45956C13.0196 5.27202 12.7652 5.16667 12.5 5.16667C12.2348 5.16667 11.9804 5.27202 11.7929 5.45956C11.6054 5.6471 11.5 5.90145 11.5 6.16667Z" fill="#005B27"/>
</g>
<defs>
<clipPath id="clip0_1510_894">
<rect width="16" height="16" fill="white"/>
</clipPath>
</defs>
</svg>
