<svg width="12" height="12" viewBox="0 0 12 12" fill="none" xmlns="http://www.w3.org/2000/svg">
<g clip-path="url(#clip0_7171_3009)">
<path fill-rule="evenodd" clip-rule="evenodd" d="M7.00092 0.254349C8.47769 0.254349 9.54437 0.300224 10.2511 0.347424C11.072 0.402249 11.7192 1.02495 11.7847 1.85275C11.8345 2.4826 11.8801 3.39707 11.8801 4.6331C11.8801 5.86912 11.8345 6.78362 11.7847 7.41347C11.7192 8.24127 11.072 8.86397 10.2511 8.9188L10.2158 8.92117C10.1874 8.9231 10.1581 8.92507 10.1286 8.92692V9.72137C10.1286 10.2378 9.53814 10.5318 9.12604 10.2205L7.92409 9.31255C7.93002 9.26845 7.93464 9.22382 7.93784 9.17877C7.97234 8.69312 8.00179 8.01952 8.00179 7.13525C8.00179 6.25097 7.97234 5.5774 7.93784 5.09175C7.86399 4.05192 7.04717 3.26045 6.02174 3.1951C5.49674 3.16165 4.74834 3.13182 3.74814 3.13182C3.11564 3.13182 2.58384 3.14372 2.14554 3.16097C2.16352 2.63417 2.18972 2.20015 2.21719 1.85275C2.28264 1.02495 2.92989 0.402249 3.75074 0.347424C4.45749 0.300224 5.52419 0.254349 7.00092 0.254349ZM3.74824 3.75735C4.73607 3.75735 5.47114 3.7868 5.98204 3.81935C6.69984 3.8651 7.26262 4.41327 7.31397 5.13607C7.34734 5.60607 7.37634 6.26485 7.37634 7.13525C7.37634 8.00565 7.34734 8.66445 7.31397 9.13445C7.26262 9.85725 6.69984 10.4054 5.98204 10.4511C5.56334 10.4778 4.99409 10.5024 4.25862 10.5104L2.88752 11.6073C2.47672 11.9359 1.87162 11.6415 1.87162 11.1185V10.4713C1.74222 10.4649 1.62324 10.4581 1.51442 10.4511C0.796642 10.4054 0.233842 9.85725 0.182492 9.13445C0.149117 8.66445 0.120117 8.00565 0.120117 7.13525C0.120117 6.26487 0.149117 5.60607 0.182492 5.13607C0.233842 4.41327 0.796642 3.8651 1.51442 3.81937C2.02534 3.7868 2.76042 3.75735 3.74824 3.75735ZM2.24694 5.63397C1.97057 5.63397 1.74652 5.85802 1.74652 6.1344C1.74652 6.41077 1.97057 6.63482 2.24694 6.63482H5.24952C5.52592 6.63482 5.74994 6.4108 5.74994 6.1344C5.74994 5.858 5.52592 5.63397 5.24952 5.63397H2.24694ZM2.24694 7.6357C1.97057 7.6357 1.74652 7.85972 1.74652 8.13612C1.74652 8.41252 1.97057 8.63655 2.24694 8.63655H3.74824C4.02462 8.63655 4.24867 8.4125 4.24867 8.13612C4.24867 7.85975 4.02462 7.6357 3.74824 7.6357H2.24694Z" fill="#005B27"/>
</g>
<defs>
<clipPath id="clip0_7171_3009">
<rect width="12" height="12" fill="white"/>
</clipPath>
</defs>
</svg>
