<svg width="16" height="16" viewBox="0 0 16 16" fill="none" xmlns="http://www.w3.org/2000/svg">
<g clip-path="url(#clip0_6629_3325)">
<path fill-rule="evenodd" clip-rule="evenodd" d="M8.14488 0C3.80735 0 0.290664 3.48948 0.290664 7.79437C0.290664 9.26672 0.702439 10.6438 1.41744 11.8188L0 16L4.3483 14.6184C5.47328 15.2353 6.76782 15.5878 8.14488 15.5878C12.4833 15.5878 16 12.0984 16 7.79348C16 3.48859 12.4833 0 8.14488 0ZM8.14488 14.282C6.81716 14.282 5.58004 13.8867 4.54746 13.2093L2.03465 14.0078L2.85102 11.5981C2.06784 10.5281 1.60583 9.2142 1.60583 7.79348C1.60673 4.21587 4.53939 1.305 8.14488 1.305C11.7504 1.305 14.6839 4.21587 14.6839 7.79348C14.6839 11.3711 11.7504 14.282 8.14488 14.282ZM11.8275 9.56493C11.6302 9.45811 10.6631 8.94002 10.4819 8.86703C10.3006 8.79404 10.1679 8.75576 10.027 8.94982C9.88618 9.14387 9.48427 9.57739 9.36316 9.70557C9.24115 9.83376 9.12363 9.84622 8.92627 9.73851C8.7298 9.63169 8.09195 9.39757 7.35094 8.69167C6.77499 8.14243 6.39731 7.47569 6.28786 7.27273C6.17841 7.06888 6.28786 6.96562 6.39103 6.87037C6.48433 6.78402 6.60006 6.64515 6.70502 6.53299C6.80908 6.42083 6.84587 6.33893 6.91763 6.20897C6.9894 6.079 6.9607 5.9615 6.91405 5.86002C6.8674 5.75854 6.50317 4.7651 6.35156 4.36008C6.19994 3.95594 6.03039 4.01558 5.91287 4.01113C5.79624 4.00757 5.66257 3.98531 5.5289 3.98086C5.39523 3.97552 5.17634 4.01736 4.98525 4.20964C4.79417 4.40191 4.2577 4.86391 4.22091 5.84311C4.18413 6.82141 4.86684 7.79437 4.96193 7.93057C5.05702 8.06676 6.26543 10.1889 8.27317 11.0613C10.2818 11.9337 10.2917 11.6675 10.6604 11.6479C11.0291 11.6284 11.8643 11.2109 12.0491 10.7524C12.2339 10.294 12.2483 9.89607 12.2016 9.81151C12.155 9.72694 12.024 9.67175 11.8275 9.56493Z" fill="#7FBC53"/>
</g>
<defs>
<clipPath id="clip0_6629_3325">
<rect width="16" height="16" fill="white"/>
</clipPath>
</defs>
</svg>
